<mxfile host="app.diagrams.net" modified="2022-09-03T20:33:01.111Z" agent="5.0 (Windows NT 10.0; Win64; x64) AppleWebKit/537.36 (KHTML, like Gecko) Chrome/105.0.0.0 Safari/537.36" etag="vpCMW1nZVPk_1NE5WF07" version="20.2.8" type="github">
  <diagram id="UvT_nuZFbLqnoWbBBMHW" name="Страница 1">
    <mxGraphModel dx="1038" dy="579" grid="1" gridSize="10" guides="1" tooltips="1" connect="1" arrows="1" fold="1" page="1" pageScale="1" pageWidth="827" pageHeight="1169" math="0" shadow="0">
      <root>
        <mxCell id="0" />
        <mxCell id="1" parent="0" />
        <mxCell id="Sguft5I54XbJpJrDdP_t-1" value="Pool" style="swimlane;childLayout=stackLayout;resizeParent=1;resizeParentMax=0;horizontal=0;startSize=20;horizontalStack=0;" vertex="1" parent="1">
          <mxGeometry x="170" y="120" width="480" height="300" as="geometry" />
        </mxCell>
        <mxCell id="Sguft5I54XbJpJrDdP_t-2" value="Lane 1" style="swimlane;startSize=20;horizontal=0;" vertex="1" parent="Sguft5I54XbJpJrDdP_t-1">
          <mxGeometry x="20" width="460" height="120" as="geometry" />
        </mxCell>
        <mxCell id="Sguft5I54XbJpJrDdP_t-3" value="Lane 2" style="swimlane;startSize=20;horizontal=0;" vertex="1" parent="Sguft5I54XbJpJrDdP_t-1">
          <mxGeometry x="20" y="120" width="460" height="90" as="geometry" />
        </mxCell>
        <mxCell id="Sguft5I54XbJpJrDdP_t-4" value="Lane 3" style="swimlane;startSize=20;horizontal=0;" vertex="1" parent="Sguft5I54XbJpJrDdP_t-1">
          <mxGeometry x="20" y="210" width="460" height="90" as="geometry" />
        </mxCell>
        <mxCell id="Sguft5I54XbJpJrDdP_t-5" value="Pool" style="swimlane;childLayout=stackLayout;resizeParent=1;resizeParentMax=0;horizontal=0;startSize=20;horizontalStack=0;" vertex="1" parent="1">
          <mxGeometry x="170" y="120" width="480" height="630" as="geometry" />
        </mxCell>
        <mxCell id="Sguft5I54XbJpJrDdP_t-6" value="опер-1" style="swimlane;startSize=20;horizontal=0;" vertex="1" parent="Sguft5I54XbJpJrDdP_t-5">
          <mxGeometry x="20" width="460" height="120" as="geometry" />
        </mxCell>
        <mxCell id="Sguft5I54XbJpJrDdP_t-22" value="4" style="rounded=1;whiteSpace=wrap;html=1;fontSize=21;" vertex="1" parent="Sguft5I54XbJpJrDdP_t-6">
          <mxGeometry x="80" y="20" width="60" height="60" as="geometry" />
        </mxCell>
        <mxCell id="Sguft5I54XbJpJrDdP_t-7" value="опер-2" style="swimlane;startSize=20;horizontal=0;" vertex="1" parent="Sguft5I54XbJpJrDdP_t-5">
          <mxGeometry x="20" y="120" width="460" height="90" as="geometry" />
        </mxCell>
        <mxCell id="Sguft5I54XbJpJrDdP_t-21" value="3" style="rounded=1;whiteSpace=wrap;html=1;fontSize=21;" vertex="1" parent="Sguft5I54XbJpJrDdP_t-7">
          <mxGeometry x="80" y="10" width="60" height="60" as="geometry" />
        </mxCell>
        <mxCell id="Sguft5I54XbJpJrDdP_t-8" value="опер-3" style="swimlane;startSize=20;horizontal=0;" vertex="1" parent="Sguft5I54XbJpJrDdP_t-5">
          <mxGeometry x="20" y="210" width="460" height="90" as="geometry" />
        </mxCell>
        <mxCell id="Sguft5I54XbJpJrDdP_t-19" value="3" style="rounded=1;whiteSpace=wrap;html=1;fontSize=21;" vertex="1" parent="Sguft5I54XbJpJrDdP_t-8">
          <mxGeometry x="80" y="15" width="60" height="60" as="geometry" />
        </mxCell>
        <mxCell id="Sguft5I54XbJpJrDdP_t-32" value="опер-3" style="swimlane;startSize=20;horizontal=0;" vertex="1" parent="Sguft5I54XbJpJrDdP_t-5">
          <mxGeometry x="20" y="300" width="460" height="90" as="geometry" />
        </mxCell>
        <mxCell id="Sguft5I54XbJpJrDdP_t-33" value="3" style="rounded=1;whiteSpace=wrap;html=1;fontSize=21;" vertex="1" parent="Sguft5I54XbJpJrDdP_t-32">
          <mxGeometry x="80" y="15" width="60" height="60" as="geometry" />
        </mxCell>
        <mxCell id="Sguft5I54XbJpJrDdP_t-29" value="опер-4" style="swimlane;startSize=20;horizontal=0;" vertex="1" parent="Sguft5I54XbJpJrDdP_t-5">
          <mxGeometry x="20" y="390" width="460" height="120" as="geometry" />
        </mxCell>
        <mxCell id="Sguft5I54XbJpJrDdP_t-30" value="1" style="rounded=1;whiteSpace=wrap;html=1;fontSize=21;" vertex="1" parent="Sguft5I54XbJpJrDdP_t-29">
          <mxGeometry x="80" y="30" width="60" height="60" as="geometry" />
        </mxCell>
        <mxCell id="Sguft5I54XbJpJrDdP_t-18" value="2" style="rounded=1;whiteSpace=wrap;html=1;fontSize=21;" vertex="1" parent="Sguft5I54XbJpJrDdP_t-29">
          <mxGeometry x="224" y="50" width="60" height="60" as="geometry" />
        </mxCell>
        <mxCell id="Sguft5I54XbJpJrDdP_t-9" value="опер-4" style="swimlane;startSize=20;horizontal=0;" vertex="1" parent="Sguft5I54XbJpJrDdP_t-5">
          <mxGeometry x="20" y="510" width="460" height="120" as="geometry" />
        </mxCell>
        <mxCell id="Sguft5I54XbJpJrDdP_t-17" value="1" style="rounded=1;whiteSpace=wrap;html=1;fontSize=21;" vertex="1" parent="Sguft5I54XbJpJrDdP_t-9">
          <mxGeometry x="80" y="30" width="60" height="60" as="geometry" />
        </mxCell>
        <mxCell id="Sguft5I54XbJpJrDdP_t-23" value="2" style="rounded=1;whiteSpace=wrap;html=1;fontSize=21;" vertex="1" parent="Sguft5I54XbJpJrDdP_t-9">
          <mxGeometry x="224" y="45" width="60" height="60" as="geometry" />
        </mxCell>
        <mxCell id="Sguft5I54XbJpJrDdP_t-24" value="" style="edgeStyle=orthogonalEdgeStyle;orthogonalLoop=1;jettySize=auto;html=1;fontSize=21;curved=1;" edge="1" parent="Sguft5I54XbJpJrDdP_t-5" source="Sguft5I54XbJpJrDdP_t-22" target="Sguft5I54XbJpJrDdP_t-21">
          <mxGeometry relative="1" as="geometry" />
        </mxCell>
        <mxCell id="Sguft5I54XbJpJrDdP_t-25" value="" style="edgeStyle=orthogonalEdgeStyle;curved=1;orthogonalLoop=1;jettySize=auto;html=1;fontSize=21;" edge="1" parent="Sguft5I54XbJpJrDdP_t-5" source="Sguft5I54XbJpJrDdP_t-21" target="Sguft5I54XbJpJrDdP_t-19">
          <mxGeometry relative="1" as="geometry" />
        </mxCell>
        <mxCell id="Sguft5I54XbJpJrDdP_t-34" value="" style="edgeStyle=orthogonalEdgeStyle;curved=1;orthogonalLoop=1;jettySize=auto;html=1;fontSize=21;" edge="1" parent="Sguft5I54XbJpJrDdP_t-5" source="Sguft5I54XbJpJrDdP_t-18" target="Sguft5I54XbJpJrDdP_t-23">
          <mxGeometry relative="1" as="geometry" />
        </mxCell>
        <mxCell id="Sguft5I54XbJpJrDdP_t-35" value="" style="edgeStyle=orthogonalEdgeStyle;curved=1;orthogonalLoop=1;jettySize=auto;html=1;fontSize=21;" edge="1" parent="Sguft5I54XbJpJrDdP_t-5" source="Sguft5I54XbJpJrDdP_t-19" target="Sguft5I54XbJpJrDdP_t-33">
          <mxGeometry relative="1" as="geometry" />
        </mxCell>
        <mxCell id="Sguft5I54XbJpJrDdP_t-36" value="" style="edgeStyle=orthogonalEdgeStyle;curved=1;orthogonalLoop=1;jettySize=auto;html=1;fontSize=21;" edge="1" parent="Sguft5I54XbJpJrDdP_t-5" source="Sguft5I54XbJpJrDdP_t-33" target="Sguft5I54XbJpJrDdP_t-30">
          <mxGeometry relative="1" as="geometry" />
        </mxCell>
        <mxCell id="Sguft5I54XbJpJrDdP_t-37" value="" style="edgeStyle=orthogonalEdgeStyle;curved=1;orthogonalLoop=1;jettySize=auto;html=1;fontSize=21;" edge="1" parent="Sguft5I54XbJpJrDdP_t-5" source="Sguft5I54XbJpJrDdP_t-30" target="Sguft5I54XbJpJrDdP_t-17">
          <mxGeometry relative="1" as="geometry" />
        </mxCell>
        <mxCell id="Sguft5I54XbJpJrDdP_t-38" value="" style="edgeStyle=orthogonalEdgeStyle;curved=1;orthogonalLoop=1;jettySize=auto;html=1;fontSize=21;entryX=0.5;entryY=0;entryDx=0;entryDy=0;exitX=0.75;exitY=1;exitDx=0;exitDy=0;" edge="1" parent="Sguft5I54XbJpJrDdP_t-5" source="Sguft5I54XbJpJrDdP_t-33" target="Sguft5I54XbJpJrDdP_t-18">
          <mxGeometry relative="1" as="geometry">
            <mxPoint x="240" y="345" as="targetPoint" />
            <Array as="points">
              <mxPoint x="145" y="410" />
              <mxPoint x="274" y="410" />
            </Array>
          </mxGeometry>
        </mxCell>
        <mxCell id="Sguft5I54XbJpJrDdP_t-16" value="" style="edgeStyle=orthogonalEdgeStyle;rounded=0;orthogonalLoop=1;jettySize=auto;html=1;" edge="1" parent="1" target="Sguft5I54XbJpJrDdP_t-15">
          <mxGeometry relative="1" as="geometry">
            <mxPoint x="320" y="210" as="sourcePoint" />
          </mxGeometry>
        </mxCell>
      </root>
    </mxGraphModel>
  </diagram>
</mxfile>
